# xmcd
#
# Track frame offsets: 
#        150
#        23000
#        43450
#        64688
#        85976
#        107714
#        128939
#        148589
#        169252
#        188690
#
# Disc length: 2871 seconds
#
# Revision: 0
# Processed by: cddbd v1.5.1PL0 Copyright (c) Steve Scherf et al.
# Submitted via: ExactAudioCopy v0.95b3
#
DISCID=8b0b350a
DTITLE=黃舒駿 - 為你瘋狂
DYEAR=1900
DGENRE=Pop
TTITLE0=為你瘋狂
TTITLE1=昨天今天永遠
TTITLE2=你心中有一座花園
TTITLE3=難有真情
TTITLE4=何去何從
TTITLE5=不變
TTITLE6=訴說心曲
TTITLE7=心情的世界
TTITLE8=是不是我
TTITLE9=疑神疑鬼
EXTD=
EXTT0=
EXTT1=
EXTT2=
EXTT3=
EXTT4=
EXTT5=
EXTT6=
EXTT7=
EXTT8=
EXTT9=
PLAYORDER=
